<svg xmlns="http://www.w3.org/2000/svg">
    <symbol id="default">
        <path d="M 2.32 5.135 L 29.679 5.135 C 31.455 5.129 32.575 7.051 31.692 8.594 C 31.63 8.702 31.56 8.805 31.481 8.903 L 17.802 26.001 C 16.877 27.154 15.122 27.154 14.196 26.001 L 0.52 8.903 C -0.603 7.521 0.193 5.444 1.951 5.165 C 2.073 5.145 2.197 5.135 2.32 5.135 Z"/>
    </symbol>
    <symbol id="typescript">
        <g style="" transform="matrix(0.538602, 0, 0, 0.538602, -10.926575, -14.000132)">
            <polygon points="79.7,43.5 74,37.9 50.2,62.2 25.9,38.4 20.3,44.2 50.4,73.5  " />
        </g>
    </symbol>
    <symbol id="java">
        <g style="transform-origin: 423.125px 423.125px;" transform="matrix(0.039913, 0, 0, 0.039913, -407.125, -407.125)">
          <path class="fil0" d="M505 110l0 231 231 0c48,0 88,37 88,82l0 0c0,45 -40,82 -88,82l-231 0 0 231c0,48 -37,88 -82,88l0 0c-45,0 -82,-40 -82,-88l0 -231 -231 0c-117,0 -117,-164 0,-164l231 0 0 -231c0,-117 164,-117 164,0z" />
        </g>
    </symbol>
</svg>
