<?xml version="1.0" encoding="utf-8"?>
<svg version="1.1" id="svg2" width="688.70667" height="627.96002" viewBox="266.34 0.22 156.025 211.229" xmlns="http://www.w3.org/2000/svg">
  <g id="g8" transform="matrix(1.3333333,0,0,-1.3333333,0,627.96)">
    <g id="g10" transform="scale(0.1)">
      <path d="m 2742.12,4708.05 c 36.25,-41.28 48.22,-100.33 37.81,-153.58 -11.21,-59.81 -44.39,-112.68 -83.36,-158.22 -31.25,-36.66 -67.15,-69.07 -104.57,-99.17 -43.61,-35.12 -86.45,-72.93 -113.84,-122.33 -23.16,-40.13 -28.56,-89.52 -12.74,-133.13 25.85,-74.86 86.06,-130.43 118.86,-201.05 -36.28,32.03 -71.78,65.22 -104.97,100.33 -34.73,37.05 -67.53,76.41 -89.14,122.72 -14.66,32.42 -21.22,70.23 -10.03,104.57 11.19,35.12 36.27,63.29 61.36,89.53 69.84,69.85 155.89,121.17 224.19,192.17 37.84,38.98 69.09,85.67 79.89,139.31 8.88,39.36 4.63,79.88 -3.46,118.85 v 0" style="fill:#e9232e;fill-opacity:1;fill-rule:nonzero;stroke:none" id="path154"/>
      <path d="m 2742.12,4708.05 c 36.25,-41.28 48.22,-100.33 37.81,-153.58 -11.21,-59.81 -44.39,-112.68 -83.36,-158.22 -31.25,-36.66 -67.15,-69.07 -104.57,-99.17 -43.61,-35.12 -86.45,-72.93 -113.84,-122.33 -23.16,-40.13 -28.56,-89.52 -12.74,-133.13 25.85,-74.86 86.06,-130.43 118.86,-201.05 -36.28,32.03 -71.78,65.22 -104.97,100.33 -34.73,37.05 -67.53,76.41 -89.14,122.72 -14.66,32.42 -21.22,70.23 -10.03,104.57 11.19,35.12 36.27,63.29 61.36,89.53 69.84,69.85 155.89,121.17 224.19,192.17 37.84,38.98 69.09,85.67 79.89,139.31 8.88,39.36 4.63,79.88 -3.46,118.85 z" style="fill:none;stroke:#e9232e;stroke-width:0.9375;stroke-linecap:butt;stroke-linejoin:miter;stroke-miterlimit:10;stroke-dasharray:none;stroke-opacity:1" id="path156"/>
      <path d="m 2684.99,4268.52 c 74.86,55.19 162.46,90.3 251.21,115.77 -70.21,-44.76 -143.53,-85.66 -204.12,-143.16 -22.01,-21.22 -42.83,-45.54 -52.48,-75.25 -7.34,-22 -4.26,-46.31 4.63,-67.15 16.21,-37.04 43.59,-67.14 64.43,-101.1 17.76,-28.94 20.84,-65.99 7.35,-97.25 -20.47,-45.92 -60.59,-79.49 -102.27,-106.11 -5.41,-3.09 -10.04,-8.88 -16.6,-9.65 27.79,25.08 49.39,60.58 48.63,98.79 -0.78,28.55 -16.6,53.63 -35.12,74.09 -38.2,45.53 -70.23,103.42 -63.67,164.77 6.56,61.36 50.55,110.75 98.01,146.25 v 0" style="fill:#e9232e;fill-opacity:1;fill-rule:nonzero;stroke:none" id="path158"/>
      <path d="m 2684.99,4268.52 c 74.86,55.19 162.46,90.3 251.21,115.77 -70.21,-44.76 -143.53,-85.66 -204.12,-143.16 -22.01,-21.22 -42.83,-45.54 -52.48,-75.25 -7.34,-22 -4.26,-46.31 4.63,-67.15 16.21,-37.04 43.59,-67.14 64.43,-101.1 17.76,-28.94 20.84,-65.99 7.35,-97.25 -20.47,-45.92 -60.59,-79.49 -102.27,-106.11 -5.41,-3.09 -10.04,-8.88 -16.6,-9.65 27.79,25.08 49.39,60.58 48.63,98.79 -0.78,28.55 -16.6,53.63 -35.12,74.09 -38.2,45.53 -70.23,103.42 -63.67,164.77 6.56,61.36 50.55,110.75 98.01,146.25 z" style="fill:none;stroke:#e9232e;stroke-width:0.9375;stroke-linecap:butt;stroke-linejoin:miter;stroke-miterlimit:10;stroke-dasharray:none;stroke-opacity:1" id="path160"/>
      <path d="m 2950.5,3822.43 c 16.19,19.68 42.05,24.7 65.58,27.79 40.92,5.4 84.52,-5.02 115.39,-33.19 25.47,-22.76 39.75,-58.27 34.34,-92.61 -5.78,-39.75 -32.42,-72.94 -62.5,-98.02 -54.41,-43.6 -121.56,-69.07 -188.71,-86.05 3.87,4.25 8.11,8.1 13.12,11.19 50.94,27.4 101.49,59.42 138.93,104.19 22.75,27.78 40.51,64.06 33.18,100.72 -7.71,42.44 -49,73.32 -91.07,75.63 -20.08,1.93 -38.97,-5.79 -58.26,-9.65 v 0" style="fill:#3471c0;fill-opacity:1;fill-rule:nonzero;stroke:none" id="path162"/>
      <path d="m 2950.5,3822.43 c 16.19,19.68 42.05,24.7 65.58,27.79 40.92,5.4 84.52,-5.02 115.39,-33.19 25.47,-22.76 39.75,-58.27 34.34,-92.61 -5.78,-39.75 -32.42,-72.94 -62.5,-98.02 -54.41,-43.6 -121.56,-69.07 -188.71,-86.05 3.87,4.25 8.11,8.1 13.12,11.19 50.94,27.4 101.49,59.42 138.93,104.19 22.75,27.78 40.51,64.06 33.18,100.72 -7.71,42.44 -49,73.32 -91.07,75.63 -20.08,1.93 -38.97,-5.79 -58.26,-9.65 z" style="fill:none;stroke:#3471c0;stroke-width:0.9375;stroke-linecap:butt;stroke-linejoin:miter;stroke-miterlimit:10;stroke-dasharray:none;stroke-opacity:1" id="path164"/>
      <path d="m 2174.85,3787.32 c 71,30.48 148.18,50.16 225.74,49.01 -45.15,-13.12 -91.45,-24.31 -133.9,-44.38 -10.03,-5.4 -21.61,-10.42 -27.4,-20.84 -3.08,-8.1 5.4,-13.5 11.57,-16.2 26.24,-10.81 55.19,-12.36 83.36,-15.06 98.78,-6.56 197.96,-2.7 296.38,3.48 97.22,6.17 193.71,19.29 289.78,34.73 -21.21,-10.04 -42.83,-20.07 -62.5,-32.8 -10.04,-6.95 -22.38,-8.88 -33.57,-11.58 -118.09,-26.24 -239.27,-34.35 -359.66,-36.27 -46.7,-0.39 -92.99,0.38 -139.3,3.47 -51.71,3.47 -103.81,7.33 -154.36,20.84 -14.67,4.24 -30.1,8.87 -41.68,19.29 -5.79,4.63 -5.79,13.9 -0.77,19.29 12.73,13.13 30.49,19.3 46.31,27.02 v 0" style="fill:#3471c0;fill-opacity:1;fill-rule:nonzero;stroke:none" id="path166"/>
      <path d="m 2174.85,3787.32 c 71,30.48 148.18,50.16 225.74,49.01 -45.15,-13.12 -91.45,-24.31 -133.9,-44.38 -10.03,-5.4 -21.61,-10.42 -27.4,-20.84 -3.08,-8.1 5.4,-13.5 11.57,-16.2 26.24,-10.81 55.19,-12.36 83.36,-15.06 98.78,-6.56 197.96,-2.7 296.38,3.48 97.22,6.17 193.71,19.29 289.78,34.73 -21.21,-10.04 -42.83,-20.07 -62.5,-32.8 -10.04,-6.95 -22.38,-8.88 -33.57,-11.58 -118.09,-26.24 -239.27,-34.35 -359.66,-36.27 -46.7,-0.39 -92.99,0.38 -139.3,3.47 -51.71,3.47 -103.81,7.33 -154.36,20.84 -14.67,4.24 -30.1,8.87 -41.68,19.29 -5.79,4.63 -5.79,13.9 -0.77,19.29 12.73,13.13 30.49,19.3 46.31,27.02 z" style="fill:none;stroke:#3471c0;stroke-width:0.9375;stroke-linecap:butt;stroke-linejoin:miter;stroke-miterlimit:10;stroke-dasharray:none;stroke-opacity:1" id="path168"/>
      <path d="m 2265.91,3622.54 c 20.07,15.82 44,24.7 67.92,33.19 -7.71,-9.26 -18.52,-18.14 -19.29,-30.87 -0.38,-8.1 6.18,-14.28 12.73,-18.14 12.73,-6.56 27.01,-8.88 41.3,-10.8 74.08,-7.72 148.94,-11.97 223.81,-6.95 68.29,3.47 136.22,14.67 203.76,26.63 18.52,-17.37 40.51,-29.33 63.67,-39.75 -81.44,-23.92 -165.17,-37.82 -249.29,-44.38 -79.49,-5.4 -160.14,-5.02 -239.26,7.73 -31.26,5.78 -63.28,12.34 -91.83,27 -11.58,6.18 -24.7,14.28 -28.18,27.79 -2.31,11.57 6.18,21.99 14.66,28.55 v 0" style="fill:#3471c0;fill-opacity:1;fill-rule:nonzero;stroke:none" id="path170"/>
      <path d="m 2265.91,3622.54 c 20.07,15.82 44,24.7 67.92,33.19 -7.71,-9.26 -18.52,-18.14 -19.29,-30.87 -0.38,-8.1 6.18,-14.28 12.73,-18.14 12.73,-6.56 27.01,-8.88 41.3,-10.8 74.08,-7.72 148.94,-11.97 223.81,-6.95 68.29,3.47 136.22,14.67 203.76,26.63 18.52,-17.37 40.51,-29.33 63.67,-39.75 -81.44,-23.92 -165.17,-37.82 -249.29,-44.38 -79.49,-5.4 -160.14,-5.02 -239.26,7.73 -31.26,5.78 -63.28,12.34 -91.83,27 -11.58,6.18 -24.7,14.28 -28.18,27.79 -2.31,11.57 6.18,21.99 14.66,28.55 z" style="fill:none;stroke:#3471c0;stroke-width:0.9375;stroke-linecap:butt;stroke-linejoin:miter;stroke-miterlimit:10;stroke-dasharray:none;stroke-opacity:1" id="path172"/>
      <path d="m 2310.68,3454.29 c 17.75,14.28 39.74,21.62 61.36,27.79 -6.95,-6.55 -19.3,-14.66 -13.89,-25.85 10.42,-13.52 29.71,-15.06 45.15,-18.54 65.21,-8.09 131.2,-13.49 196.42,-8.47 49.39,3.08 98,11.95 146.25,20.45 27.77,-16.22 56.72,-30.1 86.42,-42.46 -45.52,-20.44 -94.53,-33.56 -143.53,-42.83 -82.58,-14.66 -167.87,-16.59 -250.84,-3.47 -36.66,6.56 -74.09,15.04 -107.27,33.19 -12.74,7.32 -26.24,15.82 -31.64,30.1 -4.25,11.19 2.69,23.14 11.57,30.09 v 0" style="fill:#3471c0;fill-opacity:1;fill-rule:nonzero;stroke:none" id="path174"/>
      <path d="m 2310.68,3454.29 c 17.75,14.28 39.74,21.62 61.36,27.79 -6.95,-6.55 -19.3,-14.66 -13.89,-25.85 10.42,-13.52 29.71,-15.06 45.15,-18.54 65.21,-8.09 131.2,-13.49 196.42,-8.47 49.39,3.08 98,11.95 146.25,20.45 27.77,-16.22 56.72,-30.1 86.42,-42.46 -45.52,-20.44 -94.53,-33.56 -143.53,-42.83 -82.58,-14.66 -167.87,-16.59 -250.84,-3.47 -36.66,6.56 -74.09,15.04 -107.27,33.19 -12.74,7.32 -26.24,15.82 -31.64,30.1 -4.25,11.19 2.69,23.14 11.57,30.09 z" style="fill:none;stroke:#3471c0;stroke-width:0.9375;stroke-linecap:butt;stroke-linejoin:miter;stroke-miterlimit:10;stroke-dasharray:none;stroke-opacity:1" id="path176"/>
      <path d="m 2096.51,3345.09 c 35.51,11.96 72.17,21.61 109.6,22.76 15.05,0.39 30.48,-0.38 43.6,-8.1 -44.76,-2.7 -89.53,-13.89 -129.66,-34.34 -8.87,-5.02 -18.91,-10.81 -22.38,-21.23 0,-11.96 13.51,-15.82 22.38,-19.67 55.96,-20.84 115.77,-27.4 174.43,-33.58 174.8,-14.66 350.76,-10.81 525.57,5.02 65.99,7.33 132.36,14.66 196.42,32.8 20.45,6.95 43.6,13.88 57.11,32.03 8.11,10.8 2.72,24.31 -5.39,33.57 13.11,-7.34 31.64,-16.6 28.95,-34.35 -5.02,-18.52 -23.95,-28.17 -39.38,-37.04 -49.39,-25.09 -103.8,-37.83 -157.83,-49.01 -157.05,-30.87 -317.97,-37.82 -477.73,-33.19 -120.4,4.26 -240.79,15.83 -359.65,36.27 -21.22,5.02 -45.14,9.28 -60.58,25.86 -10.03,11.58 -1.16,27.79 8.48,36.27 24.32,22.38 55.58,34.73 86.06,45.93 v 0" style="fill:#3471c0;fill-opacity:1;fill-rule:nonzero;stroke:none" id="path178"/>
      <path d="m 2096.51,3345.09 c 35.51,11.96 72.17,21.61 109.6,22.76 15.05,0.39 30.48,-0.38 43.6,-8.1 -44.76,-2.7 -89.53,-13.89 -129.66,-34.34 -8.87,-5.02 -18.91,-10.81 -22.38,-21.23 0,-11.96 13.51,-15.82 22.38,-19.67 55.96,-20.84 115.77,-27.4 174.43,-33.58 174.8,-14.66 350.76,-10.81 525.57,5.02 65.99,7.33 132.36,14.66 196.42,32.8 20.45,6.95 43.6,13.88 57.11,32.03 8.11,10.8 2.72,24.31 -5.39,33.57 13.11,-7.34 31.64,-16.6 28.95,-34.35 -5.02,-18.52 -23.95,-28.17 -39.38,-37.04 -49.39,-25.09 -103.8,-37.83 -157.83,-49.01 -157.05,-30.87 -317.97,-37.82 -477.73,-33.19 -120.4,4.26 -240.79,15.83 -359.65,36.27 -21.22,5.02 -45.14,9.28 -60.58,25.86 -10.03,11.58 -1.16,27.79 8.48,36.27 24.32,22.38 55.58,34.73 86.06,45.93 z" style="fill:none;stroke:#3471c0;stroke-width:0.9375;stroke-linecap:butt;stroke-linejoin:miter;stroke-miterlimit:10;stroke-dasharray:none;stroke-opacity:1" id="path180"/>
      <path d="m 3058.15,3213.11 c 38.99,13.51 80.65,27.79 109.59,58.66 -5.02,-33.57 -33.96,-56.73 -62.52,-71.77 -54.78,-28.57 -116.15,-41.68 -177.1,-52.48 -128.91,-20.46 -259.71,-25.47 -390.54,-23.17 -89.14,2.71 -179.05,6.18 -266.65,24.71 -20.84,5.78 -43.22,9.65 -61.35,21.99 77.94,-13.12 157.06,-18.53 236.17,-21.61 130.04,-3.86 260.47,1.15 389.75,17.37 74.86,10.41 150.1,23.15 222.65,46.3 v 0" style="fill:#3471c0;fill-opacity:1;fill-rule:nonzero;stroke:none" id="path182"/>
      <path d="m 3058.15,3213.11 c 38.99,13.51 80.65,27.79 109.59,58.66 -5.02,-33.57 -33.96,-56.73 -62.52,-71.77 -54.78,-28.57 -116.15,-41.68 -177.1,-52.48 -128.91,-20.46 -259.71,-25.47 -390.54,-23.17 -89.14,2.71 -179.05,6.18 -266.65,24.71 -20.84,5.78 -43.22,9.65 -61.35,21.99 77.94,-13.12 157.06,-18.53 236.17,-21.61 130.04,-3.86 260.47,1.15 389.75,17.37 74.86,10.41 150.1,23.15 222.65,46.3 z" style="fill:none;stroke:#3471c0;stroke-width:0.9375;stroke-linecap:butt;stroke-linejoin:miter;stroke-miterlimit:10;stroke-dasharray:none;stroke-opacity:1" id="path184"/>
    </g>
  </g>
</svg>