<svg xmlns="http://www.w3.org/2000/svg" viewBox="0 0 226.006 407.48"><style><![CDATA[.B{clip-path:url(#A)}.C{fill-rule:evenodd}.D{stroke-miterlimit:11.4737}]]></style><g transform="translate(-189.98 -193.891)"><clipPath id="A"><path d="M181.5 186h249v422h-249z"/></clipPath><g class="C"><path d="M238.84 237.41c8.42 17.64 2.73 140.83-7.13 184.1-9.87 43.27-19.73 98.28-22.03 144.58-1.01 19.73 2.01 27.5 14.9 27.5 22.75 0 51.62-47.95 87.91-46.87s47.81 55.01 64.8 54.65 30.67-6.27 30.82-58.75c.5-156.75-130.9-283.76-169.27-305.21h0z" class="B"/><path stroke="#000" stroke-width=".22" d="M352.81 362.62c7.99 13.46 28.37 3.09 29.23-12.1.87-15.19-1.36-34.34-11.23-35.06-9.86-.72-20.418-5.712-26.78-11.31-6.336-5.576-12.67-22.61 0-24.69-11.31-11.31-17.93-23.84-22.9-36.87s-8.64-24.979 5.26-30.09c13.89-5.12 12.74 21.16 28.65 33.19-4.68-17.71-6.4-25.06-6.04-35.35.36-10.3-.36-18.15 14.25-16.13 14.62 2.01 8.28 32.4 19.66 44.78 3.45-11.73 14.755-15.944 25.201-7.448 7.875 6.405 7.489 32.288 3.809 52.088-3.67 19.8-15.04 16.2-19.94 28.95-4.9 12.74 2.88 41.76-6.34 54.79-9.21 13.03-10.87 33.12-4.89 49.1-18.36-17.13-27.94-53.85-27.94-53.85z" class="B D"/><path d="M238.33 379.54c-7.41 50.9-33.19 56.95-34.49 78.04-1.29 21.1 6.84 23.12 6.34 42.63s-17.86 27.43-19.94 38.01c-2.09 10.59 8.92 13.97 15.33 13.97s12.82-28.08 15.41-45.93c2.59-17.86-8.5-28.37-8.5-40.61s16.06-34.63 13.11-14.98c13.32-21.02 19.65-47.81 12.74-71.13h0z" class="B"/><path fill="#fff" d="M248.27 398.98c-5.62 27.5-40.68 181.08-22.83 183.02 17.86 1.94 43.28-47.52 84.96-47.16 41.69.36 58.11 55.44 68.26 55.08s16.85 3.6 17.93-58.46c1.08-62.07-36.79-141.41-59.19-176.33-30.38 1.94-63.14 26.28-89.13 43.85h0z" class="B"/></g><path fill="#e9232e" stroke="#000" stroke-width="7.99" d="M283.04 408.91c21.53.65 43.49-15.48 44.14-38.95s-19.01-32.54-36-31.54c-16.99 1.01-41.47 15.63-41.98 34.49-.5 18.87 12.32 35.35 33.84 36h0z" class="B D"/><path fill="#fff" d="M271.38 355.62c6.18-4.46 12.96-5.601 14.96-2.88 2.021 2.88-1.28 8.8-7.34 13.26-6.04 4.46-12.66 5.76-14.82 2.88-2.02-2.74 1.14-8.78 7.2-13.26h0z" class="B C"/></g></svg>
