<svg xmlns="http://www.w3.org/2000/svg" width="688.707" height="627.96" viewBox="266.34 0.22 156.025 211.229" xmlns:v="https://vecta.io/nano"><style><![CDATA[.B{fill:none}.C{stroke:#000}.D{stroke-miterlimit:10}.E{stroke-width:.125}]]></style><path d="M365.615.222c4.833 5.504 6.429 13.377 5.041 20.477-1.495 7.975-5.919 15.024-11.115 21.096-4.167 4.888-8.953 9.209-13.943 13.223-5.815 4.683-11.527 9.724-15.179 16.311-3.088 5.351-3.808 11.936-1.699 17.751 3.447 9.981 11.475 17.391 15.848 26.807-4.837-4.271-9.571-8.696-13.996-13.377-4.631-4.94-9.004-10.188-11.885-16.363-1.955-4.323-2.829-9.364-1.337-13.943 1.492-4.683 4.836-8.439 8.181-11.937 9.312-9.313 20.785-16.156 29.892-25.623 5.045-5.197 9.212-11.423 10.652-18.575 1.184-5.248.617-10.651-.461-15.847h0"/><path d="M365.615.222c4.833 5.504 6.429 13.377 5.041 20.477-1.495 7.975-5.919 15.024-11.115 21.096-4.167 4.888-8.953 9.209-13.943 13.223-5.815 4.683-11.527 9.724-15.179 16.311-3.088 5.351-3.808 11.936-1.699 17.751 3.447 9.981 11.475 17.391 15.848 26.807-4.837-4.271-9.571-8.696-13.996-13.377-4.631-4.94-9.004-10.188-11.885-16.363-1.955-4.323-2.829-9.364-1.337-13.943 1.492-4.683 4.836-8.439 8.181-11.937 9.312-9.313 20.785-16.156 29.892-25.623 5.045-5.197 9.212-11.423 10.652-18.575 1.184-5.248.617-10.651-.461-15.847z" class="B C D E"/><path d="M357.998 58.825c9.981-7.359 21.661-12.04 33.495-15.436-9.361 5.968-19.137 11.421-27.216 19.088-2.935 2.829-5.711 6.072-6.997 10.033-.979 2.933-.568 6.175.617 8.953 2.161 4.939 5.812 8.952 8.591 13.48 2.368 3.859 2.779 8.799.98 12.967-2.729 6.123-8.079 10.599-13.636 14.148-.721.412-1.339 1.184-2.213 1.287 3.705-3.344 6.585-8.077 6.484-13.172-.104-3.807-2.213-7.151-4.683-9.879-5.093-6.071-9.364-13.789-8.489-21.969s6.74-14.767 13.068-19.5h0"/><path d="M357.998 58.825c9.981-7.359 21.661-12.04 33.495-15.436-9.361 5.968-19.137 11.421-27.216 19.088-2.935 2.829-5.711 6.072-6.997 10.033-.979 2.933-.568 6.175.617 8.953 2.161 4.939 5.812 8.952 8.591 13.48 2.368 3.859 2.779 8.799.98 12.967-2.729 6.123-8.079 10.599-13.636 14.148-.721.412-1.339 1.184-2.213 1.287 3.705-3.344 6.585-8.077 6.484-13.172-.104-3.807-2.213-7.151-4.683-9.879-5.093-6.071-9.364-13.789-8.489-21.969s6.74-14.767 13.068-19.5z" class="B C D E"/><path d="M393.399 118.304c2.159-2.624 5.607-3.293 8.744-3.705 5.456-.72 11.269.669 15.385 4.425 3.396 3.035 5.3 7.769 4.579 12.348-.771 5.3-4.323 9.725-8.333 13.069-7.255 5.813-16.208 9.209-25.161 11.473.516-.567 1.081-1.08 1.749-1.492 6.792-3.653 13.532-7.923 18.524-13.892 3.033-3.704 5.401-8.541 4.424-13.429-1.028-5.659-6.533-9.776-12.143-10.084-2.677-.257-5.196.772-7.768 1.287h0"/><path d="M393.399 118.304c2.159-2.624 5.607-3.293 8.744-3.705 5.456-.72 11.269.669 15.385 4.425 3.396 3.035 5.3 7.769 4.579 12.348-.771 5.3-4.323 9.725-8.333 13.069-7.255 5.813-16.208 9.209-25.161 11.473.516-.567 1.081-1.08 1.749-1.492 6.792-3.653 13.532-7.923 18.524-13.892 3.033-3.704 5.401-8.541 4.424-13.429-1.028-5.659-6.533-9.776-12.143-10.084-2.677-.257-5.196.772-7.768 1.287z" class="B C D E"/><path d="M289.979 122.985c9.467-4.064 19.757-6.688 30.099-6.535-6.02 1.749-12.193 3.241-17.853 5.917-1.337.72-2.881 1.389-3.653 2.779-.411 1.08.72 1.8 1.543 2.16 3.499 1.441 7.359 1.648 11.115 2.008 13.171.875 26.395.36 39.517-.464 12.963-.823 25.828-2.572 38.637-4.631-2.828 1.339-5.711 2.676-8.333 4.373-1.339.927-2.984 1.184-4.476 1.544-15.745 3.499-31.903 4.58-47.955 4.836-6.227.052-12.399-.051-18.573-.463-6.895-.463-13.841-.977-20.581-2.779-1.956-.565-4.013-1.183-5.557-2.572-.772-.617-.772-1.853-.103-2.572 1.697-1.751 4.065-2.573 6.175-3.603h0"/><path d="M289.979 122.985c9.467-4.064 19.757-6.688 30.099-6.535-6.02 1.749-12.193 3.241-17.853 5.917-1.337.72-2.881 1.389-3.653 2.779-.411 1.08.72 1.8 1.543 2.16 3.499 1.441 7.359 1.648 11.115 2.008 13.171.875 26.395.36 39.517-.464 12.963-.823 25.828-2.572 38.637-4.631-2.828 1.339-5.711 2.676-8.333 4.373-1.339.927-2.984 1.184-4.476 1.544-15.745 3.499-31.903 4.58-47.955 4.836-6.227.052-12.399-.051-18.573-.463-6.895-.463-13.841-.977-20.581-2.779-1.956-.565-4.013-1.183-5.557-2.572-.772-.617-.772-1.853-.103-2.572 1.697-1.751 4.065-2.573 6.175-3.603z" class="B C D E"/><path d="M302.121 144.956c2.676-2.109 5.867-3.293 9.056-4.425-1.028 1.235-2.469 2.419-2.572 4.116-.051 1.08.824 1.904 1.697 2.419 1.697.875 3.601 1.184 5.507 1.44 9.877 1.029 19.859 1.596 29.841.927 9.105-.463 18.163-1.956 27.168-3.551 2.469 2.316 5.401 3.911 8.489 5.3-10.859 3.189-22.023 5.043-33.239 5.917-10.599.72-21.352.669-31.901-1.031-4.168-.771-8.437-1.645-12.244-3.6-1.544-.824-3.293-1.904-3.757-3.705-.308-1.543.824-2.932 1.955-3.807h0"/><path d="M302.121 144.956c2.676-2.109 5.867-3.293 9.056-4.425-1.028 1.235-2.469 2.419-2.572 4.116-.051 1.08.824 1.904 1.697 2.419 1.697.875 3.601 1.184 5.507 1.44 9.877 1.029 19.859 1.596 29.841.927 9.105-.463 18.163-1.956 27.168-3.551 2.469 2.316 5.401 3.911 8.489 5.3-10.859 3.189-22.023 5.043-33.239 5.917-10.599.72-21.352.669-31.901-1.031-4.168-.771-8.437-1.645-12.244-3.6-1.544-.824-3.293-1.904-3.757-3.705-.308-1.543.824-2.932 1.955-3.807z" class="B C D E"/><path d="M308.09 167.389c2.367-1.904 5.299-2.883 8.181-3.705-.927.873-2.573 1.955-1.852 3.447 1.389 1.803 3.961 2.008 6.02 2.472 8.695 1.079 17.493 1.799 26.189 1.129 6.585-.411 13.067-1.593 19.5-2.727 3.703 2.163 7.563 4.013 11.523 5.661-6.069 2.725-12.604 4.475-19.137 5.711-11.011 1.955-22.383 2.212-33.445.463-4.888-.875-9.879-2.005-14.303-4.425-1.699-.976-3.499-2.109-4.219-4.013-.567-1.492.359-3.085 1.543-4.012h0"/><path d="M308.09 167.389c2.367-1.904 5.299-2.883 8.181-3.705-.927.873-2.573 1.955-1.852 3.447 1.389 1.803 3.961 2.008 6.02 2.472 8.695 1.079 17.493 1.799 26.189 1.129 6.585-.411 13.067-1.593 19.5-2.727 3.703 2.163 7.563 4.013 11.523 5.661-6.069 2.725-12.604 4.475-19.137 5.711-11.011 1.955-22.383 2.212-33.445.463-4.888-.875-9.879-2.005-14.303-4.425-1.699-.976-3.499-2.109-4.219-4.013-.567-1.492.359-3.085 1.543-4.012z" class="B C D E"/><path d="M279.534 181.949c4.735-1.595 9.623-2.881 14.613-3.035 2.007-.052 4.064.051 5.813 1.08-5.968.36-11.937 1.852-17.288 4.579-1.183.669-2.521 1.441-2.984 2.831 0 1.595 1.801 2.109 2.984 2.623 7.461 2.779 15.436 3.653 23.257 4.477 23.307 1.955 46.768 1.441 70.076-.669 8.799-.977 17.648-1.955 26.189-4.373 2.727-.927 5.813-1.851 7.615-4.271 1.081-1.44.363-3.241-.719-4.476 1.748.979 4.219 2.213 3.86 4.58-.669 2.469-3.193 3.756-5.251 4.939-6.585 3.345-13.84 5.044-21.044 6.535-20.94 4.116-42.396 5.043-63.697 4.425-16.053-.568-32.105-2.111-47.953-4.836-2.829-.669-6.019-1.237-8.077-3.448-1.337-1.544-.155-3.705 1.131-4.836 3.243-2.984 7.411-4.631 11.475-6.124h0"/><path d="M279.534 181.949c4.735-1.595 9.623-2.881 14.613-3.035 2.007-.052 4.064.051 5.813 1.08-5.968.36-11.937 1.852-17.288 4.579-1.183.669-2.521 1.441-2.984 2.831 0 1.595 1.801 2.109 2.984 2.623 7.461 2.779 15.436 3.653 23.257 4.477 23.307 1.955 46.768 1.441 70.076-.669 8.799-.977 17.648-1.955 26.189-4.373 2.727-.927 5.813-1.851 7.615-4.271 1.081-1.44.363-3.241-.719-4.476 1.748.979 4.219 2.213 3.86 4.58-.669 2.469-3.193 3.756-5.251 4.939-6.585 3.345-13.84 5.044-21.044 6.535-20.94 4.116-42.396 5.043-63.697 4.425-16.053-.568-32.105-2.111-47.953-4.836-2.829-.669-6.019-1.237-8.077-3.448-1.337-1.544-.155-3.705 1.131-4.836 3.243-2.984 7.411-4.631 11.475-6.124z" class="B C D E"/><path d="M407.752 199.546c5.199-1.801 10.753-3.705 14.612-7.821-.669 4.476-4.528 7.564-8.336 9.569-7.304 3.809-15.487 5.557-23.613 6.997-17.188 2.728-34.628 3.396-52.072 3.089-11.885-.361-23.873-.824-35.553-3.295-2.779-.771-5.763-1.287-8.18-2.932 10.392 1.749 20.941 2.471 31.489 2.881 17.339.515 34.729-.153 51.967-2.316 9.981-1.388 20.013-3.087 29.687-6.173h0"/><path d="M407.752 199.546c5.199-1.801 10.753-3.705 14.612-7.821-.669 4.476-4.528 7.564-8.336 9.569-7.304 3.809-15.487 5.557-23.613 6.997-17.188 2.728-34.628 3.396-52.072 3.089-11.885-.361-23.873-.824-35.553-3.295-2.779-.771-5.763-1.287-8.18-2.932 10.392 1.749 20.941 2.471 31.489 2.881 17.339.515 34.729-.153 51.967-2.316 9.981-1.388 20.013-3.087 29.687-6.173z" class="B C D E"/></svg>